<svg  width="338" height="366" viewBox="0 0 338 366" fill="none" xmlns="http://www.w3.org/2000/svg">
<mask id="mask0_3_50" style="mask-type:alpha" maskUnits="userSpaceOnUse" x="0" y="0" width="338" height="366">
<path fill-rule="evenodd" clip-rule="evenodd" d="M216 17.5C216 7.83501 223.835 0 233.5 0C233.836 0 234.169 0.00944818 234.5 0.0280931C234.831 0.00944818 235.164 0 235.5 0H305.5C305.667 0 305.834 0.00234575 306 0.00700615C306.166 0.00234575 306.333 0 306.5 0C316.165 0 324 7.83502 324 17.5V175.5C324 185.165 316.165 193 306.5 193C296.835 193 289 185.165 289 175.5V35H251V174.5C251 178.008 249.968 181.276 248.19 184.015C262.902 193.526 276.51 205.719 288.501 220.336C320.195 258.969 338 311.365 338 366H307.77C307.77 365.985 307.77 365.97 307.77 365.955C307.35 365.985 306.927 366 306.5 366H243H236.5H228C222.477 366 218 361.523 218 356V266H253V331H304.767C299.248 299.192 286.273 269.733 267.125 246.392C241.101 214.67 205.804 196.849 169 196.849C132.196 196.849 96.8994 214.67 70.875 246.392C51.7266 269.733 38.7522 299.192 33.2328 331H85V266H120V348.5V356C120 361.523 115.523 366 110 366H102.5H95H32.5C31.7308 366 30.9733 365.95 30.2303 365.854C30.2303 365.903 30.2303 365.951 30.2303 366H0C6.76787e-06 311.365 17.8053 258.968 49.499 220.336C60.5502 206.865 72.9744 195.453 86.3707 186.301C85.488 184.21 85 181.912 85 179.5V40H50V180.5C50 190.165 42.165 198 32.5 198C22.835 198 15 190.165 15 180.5V22.5C15 12.835 22.835 5 32.5 5H102.5C112.165 5 120 12.835 120 22.5V168.848C135.748 163.033 152.246 160 169 160C185.047 160 200.858 162.782 216 168.126V17.5Z" fill="white"/>
</mask>
<g mask="url(#mask0_3_50)">
<path fill-rule="evenodd" clip-rule="evenodd" d="M216 17.5C216 7.83501 223.835 0 233.5 0C233.836 0 234.169 0.00944818 234.5 0.0280931C234.831 0.00944818 235.164 0 235.5 0H305.5C305.667 0 305.834 0.00234575 306 0.00700615C306.166 0.00234575 306.333 0 306.5 0C316.165 0 324 7.83502 324 17.5V175.5C324 185.165 316.165 193 306.5 193C296.835 193 289 185.165 289 175.5V35H251V174.5C251 178.008 249.968 181.276 248.19 184.015C262.902 193.526 276.51 205.719 288.501 220.336C320.195 258.969 338 311.365 338 366H307.77C307.77 365.985 307.77 365.97 307.77 365.955C307.35 365.985 306.927 366 306.5 366H243H236.5H228C222.477 366 218 361.523 218 356V266H253V331H304.767C299.248 299.192 286.273 269.733 267.125 246.392C241.101 214.67 205.804 196.849 169 196.849C132.196 196.849 96.8994 214.67 70.875 246.392C51.7266 269.733 38.7522 299.192 33.2328 331H85V266H120V348.5V356C120 361.523 115.523 366 110 366H102.5H95H32.5C31.7308 366 30.9733 365.95 30.2303 365.854C30.2303 365.903 30.2303 365.951 30.2303 366H0C6.76787e-06 311.365 17.8053 258.968 49.499 220.336C60.5502 206.865 72.9744 195.453 86.3707 186.301C85.488 184.21 85 181.912 85 179.5V40H50V180.5C50 190.165 42.165 198 32.5 198C22.835 198 15 190.165 15 180.5V22.5C15 12.835 22.835 5 32.5 5H102.5C112.165 5 120 12.835 120 22.5V168.848C135.748 163.033 152.246 160 169 160C185.047 160 200.858 162.782 216 168.126V17.5Z" fill="#C4C4C4"/>
<path d="M234.5 0.0280914L232.25 39.9648L234.5 40.0915L236.75 39.9648L234.5 0.0280914ZM306 0.0070076L304.878 39.9913L306 40.0227L307.122 39.9913L306 0.0070076ZM289 35H329V-5H289V35ZM251 35V-5H211V35H251ZM248.19 184.015L214.637 162.238L192.821 195.85L226.473 217.606L248.19 184.015ZM288.501 220.336L257.576 245.706L288.501 220.336ZM338 366V406H378V366H338ZM307.77 366H267.77V406H307.77V366ZM307.77 365.955H347.77V322.985L304.91 326.057L307.77 365.955ZM218 266V226H178V266H218ZM253 266H293V226H253V266ZM253 331H213V371H253V331ZM304.767 331V371H352.306L344.178 324.161L304.767 331ZM267.125 246.392L236.2 271.762L267.125 246.392ZM70.875 246.392L39.9502 221.022L70.875 246.392ZM33.2328 331L-6.17823 324.161L-14.3057 371H33.2328V331ZM85 331V371H125V331H85ZM85 266V226H45V266H85ZM120 266H160V226H120V266ZM30.2303 365.854L35.3679 326.185L-9.73756 320.344L-9.76968 365.826L30.2303 365.854ZM30.2303 366V406H70.2303V366H30.2303ZM0 366H-40V406H0V366ZM49.499 220.336L80.4238 245.706L49.499 220.336ZM86.3707 186.301L108.934 219.33L135.943 200.878L123.221 170.744L86.3707 186.301ZM85 40H125V0H85V40ZM50 40V0H10V40H50ZM120 168.848H80V226.262L133.858 206.371L120 168.848ZM216 168.126L202.687 205.846L256 224.663V168.126H216ZM233.5 -40C201.744 -40 176 -14.2564 176 17.5H256C256 29.9264 245.926 40 233.5 40V-40ZM236.75 -39.9086C235.67 -39.9694 234.587 -40 233.5 -40V40C233.085 40 232.668 39.9883 232.25 39.9648L236.75 -39.9086ZM235.5 -40C234.413 -40 233.33 -39.9694 232.25 -39.9086L236.75 39.9648C236.332 39.9883 235.915 40 235.5 40V-40ZM305.5 -40H235.5V40H305.5V-40ZM307.122 -39.9773C306.582 -39.9924 306.041 -40 305.5 -40V40C305.293 40 305.086 39.9971 304.878 39.9913L307.122 -39.9773ZM306.5 -40C305.959 -40 305.418 -39.9924 304.878 -39.9773L307.122 39.9913C306.914 39.9971 306.707 40 306.5 40V-40ZM364 17.5C364 -14.2564 338.256 -40 306.5 -40V40C294.074 40 284 29.9264 284 17.5H364ZM364 175.5V17.5H284V175.5H364ZM306.5 233C338.256 233 364 207.256 364 175.5H284C284 163.074 294.074 153 306.5 153V233ZM249 175.5C249 207.256 274.744 233 306.5 233V153C318.926 153 329 163.074 329 175.5H249ZM249 35V175.5H329V35H249ZM251 75H289V-5H251V75ZM291 174.5V35H211V174.5H291ZM281.742 205.792C287.601 196.766 291 185.969 291 174.5H211C211 170.048 212.334 165.786 214.637 162.238L281.742 205.792ZM319.426 194.966C304.943 177.312 288.268 162.294 269.907 150.423L226.473 217.606C237.536 224.758 248.077 234.127 257.576 245.706L319.426 194.966ZM378 366C378 303.037 357.548 241.434 319.426 194.966L257.576 245.706C282.842 276.503 298 319.694 298 366H378ZM307.77 406H338V326H307.77V406ZM267.77 365.955V365.956C267.77 365.956 267.77 365.956 267.77 365.957C267.77 365.958 267.77 365.958 267.77 365.958V365.959C267.77 365.959 267.77 365.959 267.77 365.96C267.77 365.961 267.77 365.961 267.77 365.961V365.962V365.963C267.77 365.963 267.77 365.963 267.77 365.964C267.77 365.965 267.77 365.965 267.77 365.965V365.966C267.77 365.966 267.77 365.966 267.77 365.967C267.77 365.968 267.77 365.968 267.77 365.968V365.969C267.77 365.969 267.77 365.969 267.77 365.97C267.77 365.97 267.77 365.97 267.77 365.971C267.77 365.972 267.77 365.972 267.77 365.972V365.973C267.77 365.973 267.77 365.973 267.77 365.974C267.77 365.975 267.77 365.975 267.77 365.975V365.976C267.77 365.976 267.77 365.976 267.77 365.977C267.77 365.977 267.77 365.977 267.77 365.978C267.77 365.979 267.77 365.979 267.77 365.979V365.98C267.77 365.98 267.77 365.98 267.77 365.981C267.77 365.982 267.77 365.982 267.77 365.982V365.983C267.77 365.983 267.77 365.983 267.77 365.984C267.77 365.984 267.77 365.984 267.77 365.985C267.77 365.986 267.77 365.986 267.77 365.986V365.987C267.77 365.987 267.77 365.987 267.77 365.988C267.77 365.989 267.77 365.989 267.77 365.989V365.99C267.77 365.99 267.77 365.99 267.77 365.991C267.77 365.992 267.77 365.992 267.77 365.992C267.77 365.993 267.77 365.993 267.77 365.993V365.994C267.77 365.994 267.77 365.994 267.77 365.995C267.77 365.996 267.77 365.996 267.77 365.996V365.997C267.77 365.997 267.77 365.997 267.77 365.998C267.77 365.999 267.77 365.999 267.77 365.999V366H347.77V365.999C347.77 365.999 347.77 365.999 347.77 365.998C347.77 365.997 347.77 365.997 347.77 365.997V365.996C347.77 365.996 347.77 365.996 347.77 365.995C347.77 365.994 347.77 365.994 347.77 365.994V365.993C347.77 365.993 347.77 365.993 347.77 365.992C347.77 365.992 347.77 365.992 347.77 365.991C347.77 365.99 347.77 365.99 347.77 365.99V365.989C347.77 365.989 347.77 365.989 347.77 365.988C347.77 365.987 347.77 365.987 347.77 365.987V365.986C347.77 365.986 347.77 365.986 347.77 365.985C347.77 365.984 347.77 365.984 347.77 365.984C347.77 365.983 347.77 365.983 347.77 365.983V365.982C347.77 365.982 347.77 365.982 347.77 365.981C347.77 365.98 347.77 365.98 347.77 365.98V365.979C347.77 365.979 347.77 365.979 347.77 365.978C347.77 365.977 347.77 365.977 347.77 365.977C347.77 365.976 347.77 365.976 347.77 365.976V365.975C347.77 365.975 347.77 365.975 347.77 365.974C347.77 365.973 347.77 365.973 347.77 365.973V365.972C347.77 365.972 347.77 365.972 347.77 365.971C347.77 365.97 347.77 365.97 347.77 365.97C347.77 365.969 347.77 365.969 347.77 365.969V365.968C347.77 365.968 347.77 365.968 347.77 365.967C347.77 365.966 347.77 365.966 347.77 365.966V365.965C347.77 365.965 347.77 365.965 347.77 365.964C347.77 365.963 347.77 365.963 347.77 365.963V365.962V365.961C347.77 365.961 347.77 365.961 347.77 365.96C347.77 365.959 347.77 365.959 347.77 365.959V365.958C347.77 365.958 347.77 365.958 347.77 365.957C347.77 365.956 347.77 365.956 347.77 365.956V365.955H267.77ZM304.91 326.057C305.441 326.019 305.972 326 306.5 326V406C307.882 406 309.26 405.95 310.63 405.852L304.91 326.057ZM306.5 326H243V406H306.5V326ZM243 326H236.5V406H243V326ZM236.5 326H228V406H236.5V326ZM228 326C244.569 326 258 339.431 258 356H178C178 383.614 200.386 406 228 406V326ZM258 356V266H178V356H258ZM218 306H253V226H218V306ZM213 266V331H293V266H213ZM253 371H304.767V291H253V371ZM236.2 271.762C250.564 289.271 260.904 312.182 265.356 337.839L344.178 324.161C337.592 286.202 321.983 250.195 298.05 221.022L236.2 271.762ZM169 236.849C192.351 236.849 216.786 248.098 236.2 271.762L298.05 221.022C265.415 181.242 219.257 156.849 169 156.849V236.849ZM101.8 271.762C121.214 248.098 145.649 236.849 169 236.849V156.849C118.743 156.849 72.585 181.242 39.9502 221.022L101.8 271.762ZM72.6439 337.839C77.0959 312.182 87.4362 289.271 101.8 271.762L39.9502 221.022C16.017 250.195 0.408484 286.202 -6.17823 324.161L72.6439 337.839ZM33.2328 371H85V291H33.2328V371ZM125 331V266H45V331H125ZM85 306H120V226H85V306ZM80 266V348.5H160V266H80ZM80 348.5V356H160V348.5H80ZM80 356C80 339.431 93.4315 326 110 326V406C137.614 406 160 383.614 160 356H80ZM110 326H102.5V406H110V326ZM102.5 326H95V406H102.5V326ZM95 326H32.5V406H95V326ZM32.5 326C33.453 326 34.4115 326.062 35.3679 326.185L25.0927 405.523C27.535 405.839 30.0086 406 32.5 406V326ZM70.2303 366C70.2303 365.961 70.2303 365.922 70.2303 365.882L-9.76968 365.826C-9.76972 365.884 -9.76974 365.942 -9.76974 366H70.2303ZM0 406H30.2303V326H0V406ZM18.5741 194.966C-19.5478 241.434 -40 303.037 -40 366H40C40 319.694 55.1585 276.503 80.4238 245.706L18.5741 194.966ZM63.8071 153.273C47.1309 164.665 31.922 178.695 18.5741 194.966L80.4238 245.706C89.1784 235.035 98.818 226.241 108.934 219.33L63.8071 153.273ZM45 179.5C45 187.352 46.5964 194.933 49.5201 201.858L123.221 170.744C124.38 173.487 125 176.472 125 179.5H45ZM45 40V179.5H125V40H45ZM50 80H85V0H50V80ZM90 180.5V40H10V180.5H90ZM32.5 238C64.2564 238 90 212.256 90 180.5H10C10 168.074 20.0736 158 32.5 158V238ZM-25 180.5C-25 212.256 0.743618 238 32.5 238V158C44.9264 158 55 168.074 55 180.5H-25ZM-25 22.5V180.5H55V22.5H-25ZM32.5 -35C0.743631 -35 -25 -9.25638 -25 22.5H55C55 34.9264 44.9264 45 32.5 45V-35ZM102.5 -35H32.5V45H102.5V-35ZM160 22.5C160 -9.25638 134.256 -35 102.5 -35V45C90.0736 45 80 34.9264 80 22.5H160ZM160 168.848V22.5H80V168.848H160ZM169 120C147.379 120 126.195 123.92 106.142 131.326L133.858 206.371C145.3 202.146 157.112 200 169 200V120ZM229.313 130.407C210.013 123.595 189.705 120 169 120V200C180.388 200 191.703 201.969 202.687 205.846L229.313 130.407ZM176 17.5V168.126H256V17.5H176Z" fill="#000428"/>
<path d="M234.5 0.0280914L232.25 39.9648L234.5 40.0915L236.75 39.9648L234.5 0.0280914ZM306 0.0070076L304.878 39.9913L306 40.0227L307.122 39.9913L306 0.0070076ZM289 35H329V-5H289V35ZM251 35V-5H211V35H251ZM248.19 184.015L214.637 162.238L192.821 195.85L226.473 217.606L248.19 184.015ZM288.501 220.336L257.576 245.706L288.501 220.336ZM338 366V406H378V366H338ZM307.77 366H267.77V406H307.77V366ZM307.77 365.955H347.77V322.985L304.91 326.057L307.77 365.955ZM218 266V226H178V266H218ZM253 266H293V226H253V266ZM253 331H213V371H253V331ZM304.767 331V371H352.306L344.178 324.161L304.767 331ZM267.125 246.392L236.2 271.762L267.125 246.392ZM70.875 246.392L39.9502 221.022L70.875 246.392ZM33.2328 331L-6.17823 324.161L-14.3057 371H33.2328V331ZM85 331V371H125V331H85ZM85 266V226H45V266H85ZM120 266H160V226H120V266ZM30.2303 365.854L35.3679 326.185L-9.73756 320.344L-9.76968 365.826L30.2303 365.854ZM30.2303 366V406H70.2303V366H30.2303ZM0 366H-40V406H0V366ZM49.499 220.336L80.4238 245.706L49.499 220.336ZM86.3707 186.301L108.934 219.33L135.943 200.878L123.221 170.744L86.3707 186.301ZM85 40H125V0H85V40ZM50 40V0H10V40H50ZM120 168.848H80V226.262L133.858 206.371L120 168.848ZM216 168.126L202.687 205.846L256 224.663V168.126H216ZM233.5 -40C201.744 -40 176 -14.2564 176 17.5H256C256 29.9264 245.926 40 233.5 40V-40ZM236.75 -39.9086C235.67 -39.9694 234.587 -40 233.5 -40V40C233.085 40 232.668 39.9883 232.25 39.9648L236.75 -39.9086ZM235.5 -40C234.413 -40 233.33 -39.9694 232.25 -39.9086L236.75 39.9648C236.332 39.9883 235.915 40 235.5 40V-40ZM305.5 -40H235.5V40H305.5V-40ZM307.122 -39.9773C306.582 -39.9924 306.041 -40 305.5 -40V40C305.293 40 305.086 39.9971 304.878 39.9913L307.122 -39.9773ZM306.5 -40C305.959 -40 305.418 -39.9924 304.878 -39.9773L307.122 39.9913C306.914 39.9971 306.707 40 306.5 40V-40ZM364 17.5C364 -14.2564 338.256 -40 306.5 -40V40C294.074 40 284 29.9264 284 17.5H364ZM364 175.5V17.5H284V175.5H364ZM306.5 233C338.256 233 364 207.256 364 175.5H284C284 163.074 294.074 153 306.5 153V233ZM249 175.5C249 207.256 274.744 233 306.5 233V153C318.926 153 329 163.074 329 175.5H249ZM249 35V175.5H329V35H249ZM251 75H289V-5H251V75ZM291 174.5V35H211V174.5H291ZM281.742 205.792C287.601 196.766 291 185.969 291 174.5H211C211 170.048 212.334 165.786 214.637 162.238L281.742 205.792ZM319.426 194.966C304.943 177.312 288.268 162.294 269.907 150.423L226.473 217.606C237.536 224.758 248.077 234.127 257.576 245.706L319.426 194.966ZM378 366C378 303.037 357.548 241.434 319.426 194.966L257.576 245.706C282.842 276.503 298 319.694 298 366H378ZM307.77 406H338V326H307.77V406ZM267.77 365.955V365.956C267.77 365.956 267.77 365.956 267.77 365.957C267.77 365.958 267.77 365.958 267.77 365.958V365.959C267.77 365.959 267.77 365.959 267.77 365.96C267.77 365.961 267.77 365.961 267.77 365.961V365.962V365.963C267.77 365.963 267.77 365.963 267.77 365.964C267.77 365.965 267.77 365.965 267.77 365.965V365.966C267.77 365.966 267.77 365.966 267.77 365.967C267.77 365.968 267.77 365.968 267.77 365.968V365.969C267.77 365.969 267.77 365.969 267.77 365.97C267.77 365.97 267.77 365.97 267.77 365.971C267.77 365.972 267.77 365.972 267.77 365.972V365.973C267.77 365.973 267.77 365.973 267.77 365.974C267.77 365.975 267.77 365.975 267.77 365.975V365.976C267.77 365.976 267.77 365.976 267.77 365.977C267.77 365.977 267.77 365.977 267.77 365.978C267.77 365.979 267.77 365.979 267.77 365.979V365.98C267.77 365.98 267.77 365.98 267.77 365.981C267.77 365.982 267.77 365.982 267.77 365.982V365.983C267.77 365.983 267.77 365.983 267.77 365.984C267.77 365.984 267.77 365.984 267.77 365.985C267.77 365.986 267.77 365.986 267.77 365.986V365.987C267.77 365.987 267.77 365.987 267.77 365.988C267.77 365.989 267.77 365.989 267.77 365.989V365.99C267.77 365.99 267.77 365.99 267.77 365.991C267.77 365.992 267.77 365.992 267.77 365.992C267.77 365.993 267.77 365.993 267.77 365.993V365.994C267.77 365.994 267.77 365.994 267.77 365.995C267.77 365.996 267.77 365.996 267.77 365.996V365.997C267.77 365.997 267.77 365.997 267.77 365.998C267.77 365.999 267.77 365.999 267.77 365.999V366H347.77V365.999C347.77 365.999 347.77 365.999 347.77 365.998C347.77 365.997 347.77 365.997 347.77 365.997V365.996C347.77 365.996 347.77 365.996 347.77 365.995C347.77 365.994 347.77 365.994 347.77 365.994V365.993C347.77 365.993 347.77 365.993 347.77 365.992C347.77 365.992 347.77 365.992 347.77 365.991C347.77 365.99 347.77 365.99 347.77 365.99V365.989C347.77 365.989 347.77 365.989 347.77 365.988C347.77 365.987 347.77 365.987 347.77 365.987V365.986C347.77 365.986 347.77 365.986 347.77 365.985C347.77 365.984 347.77 365.984 347.77 365.984C347.77 365.983 347.77 365.983 347.77 365.983V365.982C347.77 365.982 347.77 365.982 347.77 365.981C347.77 365.98 347.77 365.98 347.77 365.98V365.979C347.77 365.979 347.77 365.979 347.77 365.978C347.77 365.977 347.77 365.977 347.77 365.977C347.77 365.976 347.77 365.976 347.77 365.976V365.975C347.77 365.975 347.77 365.975 347.77 365.974C347.77 365.973 347.77 365.973 347.77 365.973V365.972C347.77 365.972 347.77 365.972 347.77 365.971C347.77 365.97 347.77 365.97 347.77 365.97C347.77 365.969 347.77 365.969 347.77 365.969V365.968C347.77 365.968 347.77 365.968 347.77 365.967C347.77 365.966 347.77 365.966 347.77 365.966V365.965C347.77 365.965 347.77 365.965 347.77 365.964C347.77 365.963 347.77 365.963 347.77 365.963V365.962V365.961C347.77 365.961 347.77 365.961 347.77 365.96C347.77 365.959 347.77 365.959 347.77 365.959V365.958C347.77 365.958 347.77 365.958 347.77 365.957C347.77 365.956 347.77 365.956 347.77 365.956V365.955H267.77ZM304.91 326.057C305.441 326.019 305.972 326 306.5 326V406C307.882 406 309.26 405.95 310.63 405.852L304.91 326.057ZM306.5 326H243V406H306.5V326ZM243 326H236.5V406H243V326ZM236.5 326H228V406H236.5V326ZM228 326C244.569 326 258 339.431 258 356H178C178 383.614 200.386 406 228 406V326ZM258 356V266H178V356H258ZM218 306H253V226H218V306ZM213 266V331H293V266H213ZM253 371H304.767V291H253V371ZM236.2 271.762C250.564 289.271 260.904 312.182 265.356 337.839L344.178 324.161C337.592 286.202 321.983 250.195 298.05 221.022L236.2 271.762ZM169 236.849C192.351 236.849 216.786 248.098 236.2 271.762L298.05 221.022C265.415 181.242 219.257 156.849 169 156.849V236.849ZM101.8 271.762C121.214 248.098 145.649 236.849 169 236.849V156.849C118.743 156.849 72.585 181.242 39.9502 221.022L101.8 271.762ZM72.6439 337.839C77.0959 312.182 87.4362 289.271 101.8 271.762L39.9502 221.022C16.017 250.195 0.408484 286.202 -6.17823 324.161L72.6439 337.839ZM33.2328 371H85V291H33.2328V371ZM125 331V266H45V331H125ZM85 306H120V226H85V306ZM80 266V348.5H160V266H80ZM80 348.5V356H160V348.5H80ZM80 356C80 339.431 93.4315 326 110 326V406C137.614 406 160 383.614 160 356H80ZM110 326H102.5V406H110V326ZM102.5 326H95V406H102.5V326ZM95 326H32.5V406H95V326ZM32.5 326C33.453 326 34.4115 326.062 35.3679 326.185L25.0927 405.523C27.535 405.839 30.0086 406 32.5 406V326ZM70.2303 366C70.2303 365.961 70.2303 365.922 70.2303 365.882L-9.76968 365.826C-9.76972 365.884 -9.76974 365.942 -9.76974 366H70.2303ZM0 406H30.2303V326H0V406ZM18.5741 194.966C-19.5478 241.434 -40 303.037 -40 366H40C40 319.694 55.1585 276.503 80.4238 245.706L18.5741 194.966ZM63.8071 153.273C47.1309 164.665 31.922 178.695 18.5741 194.966L80.4238 245.706C89.1784 235.035 98.818 226.241 108.934 219.33L63.8071 153.273ZM45 179.5C45 187.352 46.5964 194.933 49.5201 201.858L123.221 170.744C124.38 173.487 125 176.472 125 179.5H45ZM45 40V179.5H125V40H45ZM50 80H85V0H50V80ZM90 180.5V40H10V180.5H90ZM32.5 238C64.2564 238 90 212.256 90 180.5H10C10 168.074 20.0736 158 32.5 158V238ZM-25 180.5C-25 212.256 0.743618 238 32.5 238V158C44.9264 158 55 168.074 55 180.5H-25ZM-25 22.5V180.5H55V22.5H-25ZM32.5 -35C0.743631 -35 -25 -9.25638 -25 22.5H55C55 34.9264 44.9264 45 32.5 45V-35ZM102.5 -35H32.5V45H102.5V-35ZM160 22.5C160 -9.25638 134.256 -35 102.5 -35V45C90.0736 45 80 34.9264 80 22.5H160ZM160 168.848V22.5H80V168.848H160ZM169 120C147.379 120 126.195 123.92 106.142 131.326L133.858 206.371C145.3 202.146 157.112 200 169 200V120ZM229.313 130.407C210.013 123.595 189.705 120 169 120V200C180.388 200 191.703 201.969 202.687 205.846L229.313 130.407ZM176 17.5V168.126H256V17.5H176Z" fill="url(#paint0_linear_3_50)" fill-opacity="0.2"/>
</g>
<defs>
<linearGradient id="paint0_linear_3_50" x1="158" y1="-40" x2="169" y2="406" gradientUnits="userSpaceOnUse">
<stop offset="0.609375" stop-color="#1583E2"/>
<stop offset="0.944262" stop-color="#111A72" stop-opacity="0.09"/>
</linearGradient>
</defs>
</svg>
