<?xml version="1.0" standalone="no"?>
<!DOCTYPE svg PUBLIC "-//W3C//DTD SVG 20010904//EN"
 "http://www.w3.org/TR/2001/REC-SVG-20010904/DTD/svg10.dtd">
<svg version="1.0" xmlns="http://www.w3.org/2000/svg"
 width="300.000000pt" height="300.000000pt" viewBox="0 0 300.000000 300.000000"
 preserveAspectRatio="xMidYMid meet">
<metadata>
</metadata>
<g transform="translate(0.000000,300.000000) scale(0.100000,-0.100000)"
fill="#0a192f" stroke="none">
<path d="M0 1500 l0 -1500 1500 0 1500 0 0 1500 0 1500 -1500 0 -1500 0 0
-1500z m1176 987 l24 -28 0 -423 0 -423 78 19 c108 28 326 28 435 0 l77 -19 0
423 0 423 24 28 24 28 281 0 c278 0 281 0 303 -23 l23 -23 3 -517 c2 -376 -1
-524 -9 -545 -22 -53 -92 -66 -135 -26 l-24 22 0 474 0 473 -160 0 -160 0 0
-410 c0 -230 4 -410 9 -410 19 0 169 -120 222 -177 109 -118 191 -271 230
-426 13 -55 22 -132 26 -234 l6 -152 -31 -31 -31 -31 -277 3 -276 3 -24 28
c-23 27 -24 33 -24 203 l0 174 85 0 85 0 0 -120 0 -120 161 0 162 0 -7 90
c-24 313 -184 546 -468 679 -100 46 -186 64 -313 64 -124 0 -212 -18 -315 -65
-277 -126 -443 -368 -466 -678 l-7 -90 162 0 161 0 0 120 0 120 86 0 85 0 -3
-180 c-4 -246 27 -224 -324 -228 l-275 -3 -31 31 -31 31 6 152 c7 186 29 283
97 422 78 162 192 294 329 382 l61 38 0 408 0 407 -160 0 -160 0 0 -465 0
-464 -22 -21 c-47 -43 -108 -34 -135 20 -18 36 -18 1014 0 1050 24 48 42 50
330 48 l269 -3 24 -28z"/>
</g>
</svg>
